# xmcd
#
# Track frame offsets: 
#        151
#        12600
#        29495
#        48356
#        67310
#        88564
#        105975
#        123473
#        140505
#        156292
#        175483
#        190065
#
# Disc length: 2817 seconds
#
# Revision: 17
# Processed by: cddbd v1.5.2PL0 Copyright (c) Steve Scherf et al.
# Submitted via: ExactAudioCopyFreeDBPlugin 1.0
#
DISCID=a90aff0c
DTITLE=蔡琴 - 蔡琴-民歌
DYEAR=1996
DGENRE=中文流行曲
TTITLE0=被遺忘的時光
TTITLE1=跟我說愛我
TTITLE2=你的眼神
TTITLE3=想你的時候
TTITLE4=抉擇
TTITLE5=我的思念
TTITLE6=出塞曲
TTITLE7=渡口
TTITLE8=怎麼能
TTITLE9=恰似你的溫柔
TTITLE10=再愛我一次
TTITLE11=謝幕曲
EXTD=YEAR: 1996 ID3G: 13
EXTT0=
EXTT1=
EXTT2=
EXTT3=
EXTT4=
EXTT5=
EXTT6=
EXTT7=
EXTT8=
EXTT9=
EXTT10=
EXTT11=
PLAYORDER=
